<svg xmlns="http://www.w3.org/2000/svg" xmlns:xlink="http://www.w3.org/1999/xlink" viewBox="0 0 112 37" fill="#fff" fill-rule="evenodd" stroke="#000" stroke-linecap="round" stroke-linejoin="round"><use xlink:href="#A" x=".5" y=".5"/><symbol id="A" overflow="visible"><g stroke="none" fill-rule="nonzero"><path d="M10.148 18.503L2.054 2.393 0 3.41v28.989l2.054 1.017zm14.734-9.131l-3.17.498L8.294 7.617l3.031-4.267zm0 16.967l-3.011-.459-15.91 2.612 3.33 4.586z" fill="#9d5125"/><path d="M2.054 2.393L6.839 3.49v28.81l-4.785 1.116z" fill="#f58534"/><path d="M4.326 34.552V1.256L6.838 0l4.725 19.918-4.725 15.89zM21.692 9.869v15.97l3.19.498 2.911-8.115-2.911-8.852z" fill="#9d5125"/><g fill="#f58534"><path d="M6.839 0l4.885 1.396v33.037l-4.885 1.376z"/><path d="M6.839 35.808l21.373-6.041v-4.047L6.839 29.687zM6.839 0l21.413 6.081v3.928L6.839 5.941z"/><path d="M28.311 29.767l-3.429.937V5.124l3.429.937z"/></g><path d="M25.919 14.994l9.291-7.497 3.15 7.277-9.191.439z" fill="#6b3b19"/><path d="M35.21 7.497l-9.291 1.515v5.981l9.291-.538z" fill="#9d5125"/><path d="M31.381 14.076l-9.769.618-4.446-.299 9.43-9.49z" fill="#6b3b19"/><g fill="#9d5125"><path d="M26.596 4.905l-9.43 2.193v7.297l9.43-.797zm8.613 23.526l-9.291-1.495v-5.981l12.441.199z"/><path d="M26.596 31.022l-9.43-2.193v-7.297l14.215.319z"/></g><path d="M31.381 21.851l-9.769-.618-4.446.299 9.43.797zm-5.463-.897l9.291.518 3.15-.319-9.191-.419z" fill="#fcbf92"/><path d="M38.36 8.434l-3.15-.937v6.958l3.15.319zM26.597 4.905l4.785 1.436v7.736l-4.785-.479zM38.36 27.494l-3.15.937v-6.958l3.15-.319zm-11.763 3.529l4.785-1.435v-7.736l-4.785.479zm21.018-17.015l2.9 7.8h-1.77l-.572-1.764h-2.934l-.607 1.745h-1.72l2.934-7.8zm.076 4.78l-.987-2.86h-.025l-1.012 2.86zm4.857-2.63v.76h.025c.202-.304.455-.506.734-.683.278-.152.607-.253.987-.253a2.56 2.56 0 0 1 .987.202c.304.126.53.38.683.734.177-.253.405-.455.683-.658.278-.177.632-.278 1.012-.278.304 0 .582.025.835.1a1.82 1.82 0 0 1 .658.354 1.65 1.65 0 0 1 .43.632c.1.253.152.582.152.936v3.794h-1.543v-3.214l-.025-.53c-.025-.177-.05-.304-.126-.43s-.152-.228-.278-.304-.304-.1-.53-.1-.405.05-.53.126a1.02 1.02 0 0 0-.329.329 1.21 1.21 0 0 0-.152.455l-.05.53v3.137h-1.548v-3.668c0-.152-.05-.304-.1-.455s-.152-.253-.278-.33-.304-.126-.557-.126c-.076 0-.177.025-.278.05-.126.025-.228.1-.354.177-.1.1-.202.228-.278.405a1.73 1.73 0 0 0-.126.683v3.311h-1.543v-5.64h1.442zm8.6.836c.152-.253.354-.43.607-.582a2.36 2.36 0 0 1 .835-.304c.309-.058.622-.091.936-.1.278 0 .582.025.86.05.304.05.557.126.8.228.253.126.43.278.582.48s.228.48.228.835v2.934c0 .253.025.506.05.734s.076.405.152.53H64.63l-.076-.278c-.025-.1-.025-.177-.05-.278-.253.253-.53.43-.885.53a3.55 3.55 0 0 1-1.037.152c-.278 0-.53-.025-.76-.1a2.2 2.2 0 0 1-.607-.304c-.177-.127-.304-.304-.405-.53-.1-.202-.152-.455-.152-.76 0-.33.05-.582.177-.784s.253-.38.43-.506a1.67 1.67 0 0 1 .607-.278l.683-.152c.228-.025.455-.076.683-.076a3.79 3.79 0 0 0 .607-.101c.177-.05.304-.1.405-.202.1-.076.152-.202.152-.354 0-.177-.025-.304-.076-.405a.5.5 0 0 0-.228-.228c-.102-.05-.202-.1-.33-.1-.126-.025-.253-.025-.38-.025-.304 0-.557.076-.708.202-.177.126-.278.354-.304.658h-1.533c.05-.354.126-.658.304-.885zm3.06 2.175l-.33.076c-.1.025-.228.05-.354.05-.126.025-.253.025-.38.05l-.354.076c-.1.025-.202.076-.304.152a.85.85 0 0 0-.202.228c-.05.1-.076.202-.076.354 0 .126.025.253.076.354s.126.177.202.228a.85.85 0 0 0 .304.126 1.68 1.68 0 0 0 .354.025c.304 0 .53-.05.708-.152s.304-.228.38-.354a1.46 1.46 0 0 0 .152-.43c.025-.152.025-.253.025-.354v-.582c-.025.076-.1.126-.202.152zm5.566-1.847h-2.73v-1.164H71.8v1.164l-2.934 3.314h3.137V21.8h-5.16v-1.164zm3.137.43c.126-.38.33-.683.582-.936a2.87 2.87 0 0 1 .911-.607c.354-.152.76-.202 1.2-.202a3.7 3.7 0 0 1 1.214.202 2.87 2.87 0 0 1 .911.607c.253.253.455.582.582.936a3.86 3.86 0 0 1 .202 1.24 3.59 3.59 0 0 1-.202 1.214c-.126.354-.33.683-.582.936a2.87 2.87 0 0 1-.911.607 3.59 3.59 0 0 1-1.214.202 3.44 3.44 0 0 1-1.189-.202c-.354-.126-.658-.33-.9-.607-.253-.253-.455-.582-.582-.936s-.202-.784-.202-1.214a2.85 2.85 0 0 1 .202-1.24zm1.4 1.897a2.32 2.32 0 0 0 .228.582c.1.177.253.304.43.405s.405.152.658.152.48-.05.658-.152.33-.228.43-.405.177-.354.228-.582c.05-.202.076-.43.076-.658a2.74 2.74 0 0 0-.076-.658c-.05-.228-.126-.405-.228-.582a1.11 1.11 0 0 0-.43-.405c-.177-.1-.405-.152-.658-.152s-.48.05-.658.152-.304.253-.43.405c-.1.177-.177.354-.228.582s-.076.43-.076.658l.076.658zm6.705-3.5v.784h.025c.202-.33.455-.557.76-.708a2.16 2.16 0 0 1 .96-.228c.405 0 .76.05 1.012.177a1.51 1.51 0 0 1 .632.481c.152.202.253.455.33.734a5.35 5.35 0 0 1 .101.961v3.44h-1.563v-3.176c0-.455-.076-.8-.228-1.037s-.405-.354-.784-.354c-.43 0-.734.126-.9.38s-.278.658-.278 1.24v2.96H79.54v-5.64zm14.03-2.14v1.442h-4.123v1.67h3.77v1.34h-3.77v1.923h4.2v1.442h-5.92v-7.782h5.843zm6.247 2.076c-.1-.152-.228-.304-.38-.43a1.34 1.34 0 0 0-.531-.278 1.7 1.7 0 0 0-.607-.101 2.03 2.03 0 0 0-.987.228c-.278.152-.48.354-.658.607s-.278.53-.354.86-.126.658-.126.987.05.658.126.96.202.582.354.835c.177.253.38.455.658.607a2.03 2.03 0 0 0 .987.228c.53 0 .936-.152 1.24-.48s.48-.734.53-1.265h1.67c-.05.48-.152.936-.33 1.315-.177.405-.43.734-.708 1.012a3.38 3.38 0 0 1-1.037.632 3.68 3.68 0 0 1-1.315.228c-.607 0-1.138-.1-1.62-.304s-.885-.506-1.214-.86a3.63 3.63 0 0 1-.759-1.29c-.177-.48-.253-1.012-.253-1.594s.076-1.113.253-1.62a3.95 3.95 0 0 1 .76-1.315c.33-.38.734-.658 1.214-.885.48-.202 1.012-.33 1.62-.33.43 0 .835.05 1.214.177s.734.304 1.037.53.557.53.76.885a3.11 3.11 0 0 1 .38 1.2h-1.72a1.33 1.33 0 0 0-.202-.53zm4.403 3.792a1.26 1.26 0 0 0 .379.43c.152.1.33.202.557.253a2.86 2.86 0 0 0 .658.076c.161-.004.322-.021.481-.051a1.5 1.5 0 0 0 .48-.152 1.12 1.12 0 0 0 .379-.304c.1-.126.152-.278.152-.48s-.076-.38-.202-.506-.304-.228-.53-.33l-.734-.228-.835-.228a4.91 4.91 0 0 1-.86-.278 2.9 2.9 0 0 1-.734-.405c-.228-.177-.405-.38-.53-.632a2.02 2.02 0 0 1-.202-.9c0-.405.076-.76.253-1.037.177-.304.405-.53.683-.734a2.44 2.44 0 0 1 .936-.43c.354-.1.708-.152 1.037-.152a5.65 5.65 0 0 1 1.164.126c.38.1.708.228 1.012.43s.53.455.683.784c.177.33.253.708.253 1.164h-1.67c-.025-.228-.076-.43-.152-.582s-.202-.278-.33-.354-.304-.152-.48-.177-.38-.05-.582-.05c-.126 0-.278.025-.405.05s-.253.076-.38.152-.202.152-.278.278c-.076.1-.1.253-.1.405s.025.278.076.38.177.177.354.253.405.152.708.228l1.2.304a5.08 5.08 0 0 1 .607.152c.267.086.522.205.759.354.253.177.48.38.658.683.177.278.278.632.278 1.088a2.56 2.56 0 0 1-.202.987c-.126.304-.354.582-.607.784a2.92 2.92 0 0 1-1.012.53c-.405.125-.86.177-1.4.177a5.03 5.03 0 0 1-1.24-.152c-.405-.102-.76-.278-1.062-.506s-.557-.506-.734-.86a2.42 2.42 0 0 1-.253-1.24h1.67c-.025.304 0 .53.1.708z" fill="#f58534"/></g></symbol></svg>